<svg width="83" height="87" viewBox="0 0 83 87" fill="none" xmlns="http://www.w3.org/2000/svg">
<g filter="url(#filter0_d_105_380)">
<path d="M17.4375 59.645C20.625 57.0775 24.1875 55.0531 28.125 53.5719C32.0625 52.0906 36.1875 51.35 40.5 51.35C44.8125 51.35 48.9375 52.0906 52.875 53.5719C56.8125 55.0531 60.375 57.0775 63.5625 59.645C65.75 56.9458 67.4531 53.8846 68.6719 50.4613C69.8906 47.0379 70.5 43.3842 70.5 39.5C70.5 30.7442 67.5781 23.2885 61.7344 17.1331C55.8906 10.9777 48.8125 7.9 40.5 7.9C32.1875 7.9 25.1094 10.9777 19.2656 17.1331C13.4219 23.2885 10.5 30.7442 10.5 39.5C10.5 43.3842 11.1094 47.0379 12.3281 50.4613C13.5469 53.8846 15.25 56.9458 17.4375 59.645ZM40.5 43.45C36.8125 43.45 33.7031 42.1169 31.1719 39.4506C28.6406 36.7844 27.375 33.5092 27.375 29.625C27.375 25.7408 28.6406 22.4656 31.1719 19.7994C33.7031 17.1331 36.8125 15.8 40.5 15.8C44.1875 15.8 47.2969 17.1331 49.8281 19.7994C52.3594 22.4656 53.625 25.7408 53.625 29.625C53.625 33.5092 52.3594 36.7844 49.8281 39.4506C47.2969 42.1169 44.1875 43.45 40.5 43.45ZM40.5 79C35.3125 79 30.4375 77.9631 25.875 75.8894C21.3125 73.8156 17.3438 71.0013 13.9688 67.4463C10.5938 63.8913 7.92188 59.7108 5.95312 54.905C3.98438 50.0992 3 44.9642 3 39.5C3 34.0358 3.98438 28.9008 5.95312 24.095C7.92188 19.2892 10.5938 15.1088 13.9688 11.5538C17.3438 7.99875 21.3125 5.18438 25.875 3.11063C30.4375 1.03688 35.3125 0 40.5 0C45.6875 0 50.5625 1.03688 55.125 3.11063C59.6875 5.18438 63.6562 7.99875 67.0312 11.5538C70.4062 15.1088 73.0781 19.2892 75.0469 24.095C77.0156 28.9008 78 34.0358 78 39.5C78 44.9642 77.0156 50.0992 75.0469 54.905C73.0781 59.7108 70.4062 63.8913 67.0312 67.4463C63.6562 71.0013 59.6875 73.8156 55.125 75.8894C50.5625 77.9631 45.6875 79 40.5 79ZM40.5 71.1C43.8125 71.1 46.9375 70.5898 49.875 69.5694C52.8125 68.549 55.5 67.0842 57.9375 65.175C55.5 63.2658 52.8125 61.801 49.875 60.7806C46.9375 59.7602 43.8125 59.25 40.5 59.25C37.1875 59.25 34.0625 59.7602 31.125 60.7806C28.1875 61.801 25.5 63.2658 23.0625 65.175C25.5 67.0842 28.1875 68.549 31.125 69.5694C34.0625 70.5898 37.1875 71.1 40.5 71.1ZM40.5 35.55C42.125 35.55 43.4688 34.9904 44.5312 33.8713C45.5938 32.7521 46.125 31.3367 46.125 29.625C46.125 27.9133 45.5938 26.4979 44.5312 25.3787C43.4688 24.2596 42.125 23.7 40.5 23.7C38.875 23.7 37.5312 24.2596 36.4688 25.3787C35.4062 26.4979 34.875 27.9133 34.875 29.625C34.875 31.3367 35.4062 32.7521 36.4688 33.8713C37.5312 34.9904 38.875 35.55 40.5 35.55Z" fill="#5275D0"/>
</g>
<defs>
<filter id="filter0_d_105_380" x="0" y="0" width="83" height="87" filterUnits="userSpaceOnUse" color-interpolation-filters="sRGB">
<feFlood flood-opacity="0" result="BackgroundImageFix"/>
<feColorMatrix in="SourceAlpha" type="matrix" values="0 0 0 0 0 0 0 0 0 0 0 0 0 0 0 0 0 0 127 0" result="hardAlpha"/>
<feOffset dx="1" dy="4"/>
<feGaussianBlur stdDeviation="2"/>
<feComposite in2="hardAlpha" operator="out"/>
<feColorMatrix type="matrix" values="0 0 0 0 0 0 0 0 0 0 0 0 0 0 0 0 0 0 0.25 0"/>
<feBlend mode="normal" in2="BackgroundImageFix" result="effect1_dropShadow_105_380"/>
<feBlend mode="normal" in="SourceGraphic" in2="effect1_dropShadow_105_380" result="shape"/>
</filter>
</defs>
</svg>
