<svg width="267" height="56" viewBox="0 0 267 56" fill="none" xmlns="http://www.w3.org/2000/svg">
<g filter="url(#filter0_d_110_1283)">
<rect x="4" y="3" width="259" height="48" rx="21" fill="white"/>
<path d="M70.8594 29.834H73.0566C72.9863 30.6719 72.752 31.4189 72.3535 32.0752C71.9551 32.7256 71.3955 33.2383 70.6748 33.6133C69.9541 33.9883 69.0781 34.1758 68.0469 34.1758C67.2559 34.1758 66.5439 34.0352 65.9111 33.7539C65.2783 33.4668 64.7363 33.0625 64.2852 32.541C63.834 32.0137 63.4883 31.3779 63.248 30.6338C63.0137 29.8896 62.8965 29.0576 62.8965 28.1377V27.0742C62.8965 26.1543 63.0166 25.3223 63.2568 24.5781C63.5029 23.834 63.8545 23.1982 64.3115 22.6709C64.7686 22.1377 65.3164 21.7305 65.9551 21.4492C66.5996 21.168 67.3232 21.0273 68.126 21.0273C69.1455 21.0273 70.0068 21.2148 70.71 21.5898C71.4131 21.9648 71.958 22.4834 72.3447 23.1455C72.7373 23.8076 72.9775 24.5664 73.0654 25.4219H70.8682C70.8096 24.8711 70.6807 24.3994 70.4814 24.0068C70.2881 23.6143 70.001 23.3154 69.6201 23.1104C69.2393 22.8994 68.7412 22.7939 68.126 22.7939C67.6221 22.7939 67.1826 22.8877 66.8076 23.0752C66.4326 23.2627 66.1191 23.5381 65.8672 23.9014C65.6152 24.2646 65.4248 24.7129 65.2959 25.2461C65.1729 25.7734 65.1113 26.377 65.1113 27.0566V28.1377C65.1113 28.7822 65.167 29.3682 65.2783 29.8955C65.3955 30.417 65.5713 30.8652 65.8057 31.2402C66.0459 31.6152 66.3506 31.9053 66.7197 32.1104C67.0889 32.3154 67.5312 32.418 68.0469 32.418C68.6738 32.418 69.1807 32.3184 69.5674 32.1191C69.96 31.9199 70.2559 31.6299 70.4551 31.249C70.6602 30.8623 70.7949 30.3906 70.8594 29.834ZM74.4453 29.3506V29.1484C74.4453 28.4629 74.5449 27.8271 74.7441 27.2412C74.9434 26.6494 75.2305 26.1367 75.6055 25.7031C75.9863 25.2637 76.4492 24.9238 76.9941 24.6836C77.5449 24.4375 78.166 24.3145 78.8574 24.3145C79.5547 24.3145 80.1758 24.4375 80.7207 24.6836C81.2715 24.9238 81.7373 25.2637 82.1182 25.7031C82.499 26.1367 82.7891 26.6494 82.9883 27.2412C83.1875 27.8271 83.2871 28.4629 83.2871 29.1484V29.3506C83.2871 30.0361 83.1875 30.6719 82.9883 31.2578C82.7891 31.8438 82.499 32.3564 82.1182 32.7959C81.7373 33.2295 81.2744 33.5693 80.7295 33.8154C80.1846 34.0557 79.5664 34.1758 78.875 34.1758C78.1777 34.1758 77.5537 34.0557 77.0029 33.8154C76.458 33.5693 75.9951 33.2295 75.6143 32.7959C75.2334 32.3564 74.9434 31.8438 74.7441 31.2578C74.5449 30.6719 74.4453 30.0361 74.4453 29.3506ZM76.5635 29.1484V29.3506C76.5635 29.7783 76.6074 30.1826 76.6953 30.5635C76.7832 30.9443 76.9209 31.2783 77.1084 31.5654C77.2959 31.8525 77.5361 32.0781 77.8291 32.2422C78.1221 32.4062 78.4707 32.4883 78.875 32.4883C79.2676 32.4883 79.6074 32.4062 79.8945 32.2422C80.1875 32.0781 80.4277 31.8525 80.6152 31.5654C80.8027 31.2783 80.9404 30.9443 81.0283 30.5635C81.1221 30.1826 81.1689 29.7783 81.1689 29.3506V29.1484C81.1689 28.7266 81.1221 28.3281 81.0283 27.9531C80.9404 27.5723 80.7998 27.2354 80.6064 26.9424C80.4189 26.6494 80.1787 26.4209 79.8857 26.2568C79.5986 26.0869 79.2559 26.002 78.8574 26.002C78.459 26.002 78.1133 26.0869 77.8203 26.2568C77.5332 26.4209 77.2959 26.6494 77.1084 26.9424C76.9209 27.2354 76.7832 27.5723 76.6953 27.9531C76.6074 28.3281 76.5635 28.7266 76.5635 29.1484ZM87.1631 26.5205V34H85.0449V24.4902H87.04L87.1631 26.5205ZM86.7852 28.8936L86.0996 28.8848C86.1055 28.2109 86.1992 27.5928 86.3809 27.0303C86.5684 26.4678 86.8262 25.9844 87.1543 25.5801C87.4883 25.1758 87.8867 24.8652 88.3496 24.6484C88.8125 24.4258 89.3281 24.3145 89.8965 24.3145C90.3535 24.3145 90.7666 24.3789 91.1357 24.5078C91.5107 24.6309 91.8301 24.833 92.0938 25.1143C92.3633 25.3955 92.5684 25.7617 92.709 26.2129C92.8496 26.6582 92.9199 27.2061 92.9199 27.8564V34H90.793V27.8477C90.793 27.3906 90.7256 27.0303 90.5908 26.7666C90.4619 26.4971 90.2715 26.3066 90.0195 26.1953C89.7734 26.0781 89.4658 26.0195 89.0967 26.0195C88.7334 26.0195 88.4082 26.0957 88.1211 26.248C87.834 26.4004 87.5908 26.6084 87.3916 26.8721C87.1982 27.1357 87.0488 27.4404 86.9434 27.7861C86.8379 28.1318 86.7852 28.501 86.7852 28.8936ZM99.4414 24.4902V26.0371H94.0801V24.4902H99.4414ZM95.627 22.1611H97.7451V31.3721C97.7451 31.665 97.7861 31.8906 97.8682 32.0488C97.9561 32.2012 98.0762 32.3037 98.2285 32.3564C98.3809 32.4092 98.5596 32.4355 98.7646 32.4355C98.9111 32.4355 99.0518 32.4268 99.1865 32.4092C99.3213 32.3916 99.4297 32.374 99.5117 32.3564L99.5205 33.9736C99.3447 34.0264 99.1396 34.0732 98.9053 34.1143C98.6768 34.1553 98.4131 34.1758 98.1143 34.1758C97.6279 34.1758 97.1973 34.0908 96.8223 33.9209C96.4473 33.7451 96.1543 33.4609 95.9434 33.0684C95.7324 32.6758 95.627 32.1543 95.627 31.5039V22.1611ZM103.344 24.4902V34H101.217V24.4902H103.344ZM101.076 21.9941C101.076 21.6719 101.182 21.4053 101.393 21.1943C101.609 20.9775 101.908 20.8691 102.289 20.8691C102.664 20.8691 102.96 20.9775 103.177 21.1943C103.394 21.4053 103.502 21.6719 103.502 21.9941C103.502 22.3105 103.394 22.5742 103.177 22.7852C102.96 22.9961 102.664 23.1016 102.289 23.1016C101.908 23.1016 101.609 22.9961 101.393 22.7852C101.182 22.5742 101.076 22.3105 101.076 21.9941ZM107.765 26.5205V34H105.646V24.4902H107.642L107.765 26.5205ZM107.387 28.8936L106.701 28.8848C106.707 28.2109 106.801 27.5928 106.982 27.0303C107.17 26.4678 107.428 25.9844 107.756 25.5801C108.09 25.1758 108.488 24.8652 108.951 24.6484C109.414 24.4258 109.93 24.3145 110.498 24.3145C110.955 24.3145 111.368 24.3789 111.737 24.5078C112.112 24.6309 112.432 24.833 112.695 25.1143C112.965 25.3955 113.17 25.7617 113.311 26.2129C113.451 26.6582 113.521 27.2061 113.521 27.8564V34H111.395V27.8477C111.395 27.3906 111.327 27.0303 111.192 26.7666C111.063 26.4971 110.873 26.3066 110.621 26.1953C110.375 26.0781 110.067 26.0195 109.698 26.0195C109.335 26.0195 109.01 26.0957 108.723 26.248C108.436 26.4004 108.192 26.6084 107.993 26.8721C107.8 27.1357 107.65 27.4404 107.545 27.7861C107.439 28.1318 107.387 28.501 107.387 28.8936ZM121.405 31.7588V24.4902H123.532V34H121.528L121.405 31.7588ZM121.704 29.7812L122.416 29.7637C122.416 30.4023 122.346 30.9912 122.205 31.5303C122.064 32.0635 121.848 32.5293 121.555 32.9277C121.262 33.3203 120.887 33.6279 120.43 33.8506C119.973 34.0674 119.425 34.1758 118.786 34.1758C118.323 34.1758 117.898 34.1084 117.512 33.9736C117.125 33.8389 116.791 33.6309 116.51 33.3496C116.234 33.0684 116.021 32.7021 115.868 32.251C115.716 31.7998 115.64 31.2607 115.64 30.6338V24.4902H117.758V30.6514C117.758 30.9971 117.799 31.2871 117.881 31.5215C117.963 31.75 118.074 31.9346 118.215 32.0752C118.355 32.2158 118.52 32.3154 118.707 32.374C118.895 32.4326 119.094 32.4619 119.305 32.4619C119.908 32.4619 120.383 32.3447 120.729 32.1104C121.08 31.8701 121.329 31.5479 121.476 31.1436C121.628 30.7393 121.704 30.2852 121.704 29.7812ZM129.896 34.1758C129.192 34.1758 128.557 34.0615 127.988 33.833C127.426 33.5986 126.945 33.2734 126.547 32.8574C126.154 32.4414 125.853 31.9521 125.642 31.3896C125.431 30.8271 125.325 30.2207 125.325 29.5703V29.2188C125.325 28.4746 125.434 27.8008 125.65 27.1973C125.867 26.5938 126.169 26.0781 126.556 25.6504C126.942 25.2168 127.399 24.8857 127.927 24.6572C128.454 24.4287 129.025 24.3145 129.641 24.3145C130.32 24.3145 130.915 24.4287 131.425 24.6572C131.935 24.8857 132.356 25.208 132.69 25.624C133.03 26.0342 133.282 26.5234 133.446 27.0918C133.616 27.6602 133.701 28.2871 133.701 28.9727V29.8779H126.354V28.3574H131.609V28.1904C131.598 27.8096 131.521 27.4521 131.381 27.1182C131.246 26.7842 131.038 26.5146 130.757 26.3096C130.476 26.1045 130.101 26.002 129.632 26.002C129.28 26.002 128.967 26.0781 128.691 26.2305C128.422 26.377 128.196 26.5908 128.015 26.8721C127.833 27.1533 127.692 27.4932 127.593 27.8916C127.499 28.2842 127.452 28.7266 127.452 29.2188V29.5703C127.452 29.9863 127.508 30.373 127.619 30.7305C127.736 31.082 127.906 31.3896 128.129 31.6533C128.352 31.917 128.621 32.125 128.938 32.2773C129.254 32.4238 129.614 32.4971 130.019 32.4971C130.528 32.4971 130.982 32.3945 131.381 32.1895C131.779 31.9844 132.125 31.6943 132.418 31.3193L133.534 32.4004C133.329 32.6992 133.062 32.9863 132.734 33.2617C132.406 33.5312 132.005 33.751 131.53 33.9209C131.062 34.0908 130.517 34.1758 129.896 34.1758ZM142.42 31.8906L144.617 24.4902H145.971L145.602 26.7051L143.387 34H142.174L142.42 31.8906ZM141.128 24.4902L142.842 31.9258L142.982 34H141.629L139.054 24.4902H141.128ZM148.027 31.8379L149.688 24.4902H151.754L149.188 34H147.834L148.027 31.8379ZM146.199 24.4902L148.37 31.8027L148.643 34H147.43L145.188 26.6963L144.819 24.4902H146.199ZM155.463 24.4902V34H153.336V24.4902H155.463ZM153.195 21.9941C153.195 21.6719 153.301 21.4053 153.512 21.1943C153.729 20.9775 154.027 20.8691 154.408 20.8691C154.783 20.8691 155.079 20.9775 155.296 21.1943C155.513 21.4053 155.621 21.6719 155.621 21.9941C155.621 22.3105 155.513 22.5742 155.296 22.7852C155.079 22.9961 154.783 23.1016 154.408 23.1016C154.027 23.1016 153.729 22.9961 153.512 22.7852C153.301 22.5742 153.195 22.3105 153.195 21.9941ZM162.143 24.4902V26.0371H156.781V24.4902H162.143ZM158.328 22.1611H160.446V31.3721C160.446 31.665 160.487 31.8906 160.569 32.0488C160.657 32.2012 160.777 32.3037 160.93 32.3564C161.082 32.4092 161.261 32.4355 161.466 32.4355C161.612 32.4355 161.753 32.4268 161.888 32.4092C162.022 32.3916 162.131 32.374 162.213 32.3564L162.222 33.9736C162.046 34.0264 161.841 34.0732 161.606 34.1143C161.378 34.1553 161.114 34.1758 160.815 34.1758C160.329 34.1758 159.898 34.0908 159.523 33.9209C159.148 33.7451 158.855 33.4609 158.645 33.0684C158.434 32.6758 158.328 32.1543 158.328 31.5039V22.1611ZM165.869 20.5V34H163.76V20.5H165.869ZM165.5 28.8936L164.814 28.8848C164.82 28.2285 164.911 27.6221 165.087 27.0654C165.269 26.5088 165.521 26.0254 165.843 25.6152C166.171 25.1992 166.563 24.8799 167.021 24.6572C167.478 24.4287 167.984 24.3145 168.541 24.3145C169.01 24.3145 169.432 24.3789 169.807 24.5078C170.188 24.6367 170.516 24.8447 170.791 25.1318C171.066 25.4131 171.274 25.7822 171.415 26.2393C171.562 26.6904 171.635 27.2412 171.635 27.8916V34H169.508V27.874C169.508 27.417 169.44 27.0537 169.306 26.7842C169.177 26.5146 168.986 26.3213 168.734 26.2041C168.482 26.0811 168.175 26.0195 167.812 26.0195C167.431 26.0195 167.094 26.0957 166.801 26.248C166.514 26.4004 166.273 26.6084 166.08 26.8721C165.887 27.1357 165.74 27.4404 165.641 27.7861C165.547 28.1318 165.5 28.501 165.5 28.8936ZM188.299 27.4609V32.3477C188.117 32.5879 187.833 32.8516 187.446 33.1387C187.065 33.4199 186.559 33.6631 185.926 33.8682C185.293 34.0732 184.505 34.1758 183.562 34.1758C182.759 34.1758 182.023 34.041 181.355 33.7715C180.688 33.4961 180.11 33.0947 179.624 32.5674C179.144 32.04 178.771 31.3984 178.508 30.6426C178.244 29.8809 178.112 29.0137 178.112 28.041V27.1533C178.112 26.1865 178.232 25.3252 178.473 24.5693C178.719 23.8076 179.07 23.1631 179.527 22.6357C179.984 22.1084 180.535 21.71 181.18 21.4404C181.83 21.165 182.565 21.0273 183.386 21.0273C184.435 21.0273 185.302 21.2031 185.987 21.5547C186.679 21.9004 187.212 22.3809 187.587 22.9961C187.962 23.6113 188.199 24.3145 188.299 25.1055H186.137C186.066 24.6602 185.929 24.2617 185.724 23.9102C185.524 23.5586 185.237 23.2832 184.862 23.084C184.493 22.8789 184.013 22.7764 183.421 22.7764C182.911 22.7764 182.463 22.873 182.076 23.0664C181.689 23.2598 181.367 23.5439 181.109 23.9189C180.857 24.2939 180.667 24.751 180.538 25.29C180.409 25.8291 180.345 26.4443 180.345 27.1357V28.041C180.345 28.7441 180.418 29.3682 180.564 29.9131C180.717 30.458 180.934 30.918 181.215 31.293C181.502 31.668 181.851 31.9521 182.261 32.1455C182.671 32.333 183.134 32.4268 183.649 32.4268C184.153 32.4268 184.566 32.3857 184.889 32.3037C185.211 32.2158 185.466 32.1133 185.653 31.9961C185.847 31.873 185.996 31.7559 186.102 31.6445V29.1045H183.438V27.4609H188.299ZM190.127 29.3506V29.1484C190.127 28.4629 190.227 27.8271 190.426 27.2412C190.625 26.6494 190.912 26.1367 191.287 25.7031C191.668 25.2637 192.131 24.9238 192.676 24.6836C193.227 24.4375 193.848 24.3145 194.539 24.3145C195.236 24.3145 195.857 24.4375 196.402 24.6836C196.953 24.9238 197.419 25.2637 197.8 25.7031C198.181 26.1367 198.471 26.6494 198.67 27.2412C198.869 27.8271 198.969 28.4629 198.969 29.1484V29.3506C198.969 30.0361 198.869 30.6719 198.67 31.2578C198.471 31.8438 198.181 32.3564 197.8 32.7959C197.419 33.2295 196.956 33.5693 196.411 33.8154C195.866 34.0557 195.248 34.1758 194.557 34.1758C193.859 34.1758 193.235 34.0557 192.685 33.8154C192.14 33.5693 191.677 33.2295 191.296 32.7959C190.915 32.3564 190.625 31.8438 190.426 31.2578C190.227 30.6719 190.127 30.0361 190.127 29.3506ZM192.245 29.1484V29.3506C192.245 29.7783 192.289 30.1826 192.377 30.5635C192.465 30.9443 192.603 31.2783 192.79 31.5654C192.978 31.8525 193.218 32.0781 193.511 32.2422C193.804 32.4062 194.152 32.4883 194.557 32.4883C194.949 32.4883 195.289 32.4062 195.576 32.2422C195.869 32.0781 196.109 31.8525 196.297 31.5654C196.484 31.2783 196.622 30.9443 196.71 30.5635C196.804 30.1826 196.851 29.7783 196.851 29.3506V29.1484C196.851 28.7266 196.804 28.3281 196.71 27.9531C196.622 27.5723 196.481 27.2354 196.288 26.9424C196.101 26.6494 195.86 26.4209 195.567 26.2568C195.28 26.0869 194.938 26.002 194.539 26.002C194.141 26.002 193.795 26.0869 193.502 26.2568C193.215 26.4209 192.978 26.6494 192.79 26.9424C192.603 27.2354 192.465 27.5723 192.377 27.9531C192.289 28.3281 192.245 28.7266 192.245 29.1484ZM200.34 29.3506V29.1484C200.34 28.4629 200.439 27.8271 200.639 27.2412C200.838 26.6494 201.125 26.1367 201.5 25.7031C201.881 25.2637 202.344 24.9238 202.889 24.6836C203.439 24.4375 204.061 24.3145 204.752 24.3145C205.449 24.3145 206.07 24.4375 206.615 24.6836C207.166 24.9238 207.632 25.2637 208.013 25.7031C208.394 26.1367 208.684 26.6494 208.883 27.2412C209.082 27.8271 209.182 28.4629 209.182 29.1484V29.3506C209.182 30.0361 209.082 30.6719 208.883 31.2578C208.684 31.8438 208.394 32.3564 208.013 32.7959C207.632 33.2295 207.169 33.5693 206.624 33.8154C206.079 34.0557 205.461 34.1758 204.77 34.1758C204.072 34.1758 203.448 34.0557 202.897 33.8154C202.353 33.5693 201.89 33.2295 201.509 32.7959C201.128 32.3564 200.838 31.8438 200.639 31.2578C200.439 30.6719 200.34 30.0361 200.34 29.3506ZM202.458 29.1484V29.3506C202.458 29.7783 202.502 30.1826 202.59 30.5635C202.678 30.9443 202.815 31.2783 203.003 31.5654C203.19 31.8525 203.431 32.0781 203.724 32.2422C204.017 32.4062 204.365 32.4883 204.77 32.4883C205.162 32.4883 205.502 32.4062 205.789 32.2422C206.082 32.0781 206.322 31.8525 206.51 31.5654C206.697 31.2783 206.835 30.9443 206.923 30.5635C207.017 30.1826 207.063 29.7783 207.063 29.3506V29.1484C207.063 28.7266 207.017 28.3281 206.923 27.9531C206.835 27.5723 206.694 27.2354 206.501 26.9424C206.313 26.6494 206.073 26.4209 205.78 26.2568C205.493 26.0869 205.15 26.002 204.752 26.002C204.354 26.002 204.008 26.0869 203.715 26.2568C203.428 26.4209 203.19 26.6494 203.003 26.9424C202.815 27.2354 202.678 27.5723 202.59 27.9531C202.502 28.3281 202.458 28.7266 202.458 29.1484ZM217.048 24.4902H218.973V33.7363C218.973 34.5918 218.791 35.3184 218.428 35.916C218.064 36.5137 217.558 36.9678 216.907 37.2783C216.257 37.5947 215.504 37.7529 214.648 37.7529C214.285 37.7529 213.881 37.7002 213.436 37.5947C212.996 37.4893 212.568 37.3193 212.152 37.085C211.742 36.8564 211.399 36.5547 211.124 36.1797L212.117 34.9316C212.457 35.3359 212.832 35.6318 213.242 35.8193C213.652 36.0068 214.083 36.1006 214.534 36.1006C215.021 36.1006 215.434 36.0098 215.773 35.8281C216.119 35.6523 216.386 35.3916 216.573 35.0459C216.761 34.7002 216.854 34.2783 216.854 33.7803V26.6436L217.048 24.4902ZM210.588 29.3506V29.166C210.588 28.4453 210.676 27.7891 210.852 27.1973C211.027 26.5996 211.279 26.0869 211.607 25.6592C211.936 25.2256 212.334 24.8945 212.803 24.666C213.271 24.4316 213.802 24.3145 214.394 24.3145C215.009 24.3145 215.533 24.4258 215.967 24.6484C216.406 24.8711 216.772 25.1904 217.065 25.6064C217.358 26.0166 217.587 26.5088 217.751 27.083C217.921 27.6514 218.047 28.2842 218.129 28.9814V29.5703C218.053 30.25 217.924 30.8711 217.742 31.4336C217.561 31.9961 217.32 32.4824 217.021 32.8926C216.723 33.3027 216.354 33.6191 215.914 33.8418C215.48 34.0645 214.968 34.1758 214.376 34.1758C213.796 34.1758 213.271 34.0557 212.803 33.8154C212.34 33.5752 211.941 33.2383 211.607 32.8047C211.279 32.3711 211.027 31.8613 210.852 31.2754C210.676 30.6836 210.588 30.042 210.588 29.3506ZM212.706 29.166V29.3506C212.706 29.7842 212.747 30.1885 212.829 30.5635C212.917 30.9385 213.049 31.2695 213.225 31.5566C213.406 31.8379 213.635 32.0605 213.91 32.2246C214.191 32.3828 214.522 32.4619 214.903 32.4619C215.401 32.4619 215.809 32.3564 216.125 32.1455C216.447 31.9346 216.693 31.6504 216.863 31.293C217.039 30.9297 217.162 30.5254 217.232 30.0801V28.4893C217.197 28.1436 217.124 27.8213 217.013 27.5225C216.907 27.2236 216.764 26.9629 216.582 26.7402C216.4 26.5117 216.172 26.3359 215.896 26.2129C215.621 26.084 215.296 26.0195 214.921 26.0195C214.54 26.0195 214.209 26.1016 213.928 26.2656C213.646 26.4297 213.415 26.6553 213.233 26.9424C213.058 27.2295 212.926 27.5635 212.838 27.9443C212.75 28.3252 212.706 28.7324 212.706 29.166ZM223.438 20.5V34H221.311V20.5H223.438ZM229.95 34.1758C229.247 34.1758 228.611 34.0615 228.043 33.833C227.48 33.5986 227 33.2734 226.602 32.8574C226.209 32.4414 225.907 31.9521 225.696 31.3896C225.485 30.8271 225.38 30.2207 225.38 29.5703V29.2188C225.38 28.4746 225.488 27.8008 225.705 27.1973C225.922 26.5938 226.224 26.0781 226.61 25.6504C226.997 25.2168 227.454 24.8857 227.981 24.6572C228.509 24.4287 229.08 24.3145 229.695 24.3145C230.375 24.3145 230.97 24.4287 231.479 24.6572C231.989 24.8857 232.411 25.208 232.745 25.624C233.085 26.0342 233.337 26.5234 233.501 27.0918C233.671 27.6602 233.756 28.2871 233.756 28.9727V29.8779H226.408V28.3574H231.664V28.1904C231.652 27.8096 231.576 27.4521 231.436 27.1182C231.301 26.7842 231.093 26.5146 230.812 26.3096C230.53 26.1045 230.155 26.002 229.687 26.002C229.335 26.002 229.021 26.0781 228.746 26.2305C228.477 26.377 228.251 26.5908 228.069 26.8721C227.888 27.1533 227.747 27.4932 227.647 27.8916C227.554 28.2842 227.507 28.7266 227.507 29.2188V29.5703C227.507 29.9863 227.562 30.373 227.674 30.7305C227.791 31.082 227.961 31.3896 228.184 31.6533C228.406 31.917 228.676 32.125 228.992 32.2773C229.309 32.4238 229.669 32.4971 230.073 32.4971C230.583 32.4971 231.037 32.3945 231.436 32.1895C231.834 31.9844 232.18 31.6943 232.473 31.3193L233.589 32.4004C233.384 32.6992 233.117 32.9863 232.789 33.2617C232.461 33.5312 232.06 33.751 231.585 33.9209C231.116 34.0908 230.571 34.1758 229.95 34.1758Z" fill="black" fill-opacity="0.54"/>
<path fill-rule="evenodd" clip-rule="evenodd" d="M50.8601 27.1463C50.8601 25.9575 50.7534 24.8144 50.5553 23.717H34.7654V30.2022H43.7882C43.3995 32.2979 42.2183 34.0735 40.4427 35.2623V39.4689H45.861C49.0312 36.5502 50.8601 32.2521 50.8601 27.1463Z" fill="#4285F4"/>
<path fill-rule="evenodd" clip-rule="evenodd" d="M34.7652 43.5304C39.2918 43.5304 43.0869 42.0291 45.8608 39.4686L40.4425 35.262C38.9413 36.2679 37.0209 36.8623 34.7652 36.8623C30.3985 36.8623 26.7025 33.9132 25.3842 29.9504H19.783V34.2942C22.5417 39.7734 28.2114 43.5304 34.7652 43.5304Z" fill="#34A853"/>
<path fill-rule="evenodd" clip-rule="evenodd" d="M25.3844 29.9509C25.0491 28.945 24.8586 27.8705 24.8586 26.7655C24.8586 25.6605 25.0491 24.586 25.3844 23.5801V19.2363H19.7832C18.6478 21.4997 18 24.0602 18 26.7655C18 29.4708 18.6478 32.0314 19.7832 34.2947L25.3844 29.9509Z" fill="#FBBC05"/>
<path fill-rule="evenodd" clip-rule="evenodd" d="M34.7652 16.668C37.2266 16.668 39.4366 17.5139 41.1741 19.1752L45.9827 14.3666C43.0793 11.6613 39.2842 10 34.7652 10C28.2114 10 22.5417 13.757 19.783 19.2362L25.3842 23.5799C26.7025 19.6172 30.3985 16.668 34.7652 16.668Z" fill="#EA4335"/>
</g>
<defs>
<filter id="filter0_d_110_1283" x="0" y="0" width="267" height="56" filterUnits="userSpaceOnUse" color-interpolation-filters="sRGB">
<feFlood flood-opacity="0" result="BackgroundImageFix"/>
<feColorMatrix in="SourceAlpha" type="matrix" values="0 0 0 0 0 0 0 0 0 0 0 0 0 0 0 0 0 0 127 0" result="hardAlpha"/>
<feOffset dy="1"/>
<feGaussianBlur stdDeviation="2"/>
<feComposite in2="hardAlpha" operator="out"/>
<feColorMatrix type="matrix" values="0 0 0 0 0 0 0 0 0 0 0 0 0 0 0 0 0 0 0.25 0"/>
<feBlend mode="normal" in2="BackgroundImageFix" result="effect1_dropShadow_110_1283"/>
<feBlend mode="normal" in="SourceGraphic" in2="effect1_dropShadow_110_1283" result="shape"/>
</filter>
</defs>
</svg>
