<svg width="26" height="26" viewBox="0 0 26 26" fill="none" xmlns="http://www.w3.org/2000/svg">
<path d="M22.3709 10.1562L20.8543 8.63958L21.6668 7.8L18.2001 4.33333L17.3605 5.14583L15.8168 3.60208L16.6293 2.7625C17.0445 2.34722 17.5591 2.14409 18.173 2.15312C18.7869 2.16215 19.3015 2.3743 19.7168 2.78958L23.2105 6.28333C23.6258 6.69861 23.8334 7.20868 23.8334 7.81354C23.8334 8.4184 23.6258 8.92847 23.2105 9.34375L22.3709 10.1562ZM9.37093 23.1833C8.95565 23.5986 8.44558 23.8062 7.84072 23.8062C7.23586 23.8062 6.72579 23.5986 6.31051 23.1833L2.81676 19.6896C2.40149 19.2743 2.19385 18.7642 2.19385 18.1594C2.19385 17.5545 2.40149 17.0444 2.81676 16.6292L3.62926 15.8167L5.17301 17.3604L4.33343 18.1729L7.82718 21.6667L8.63968 20.8271L10.1834 22.3708L9.37093 23.1833ZM20.123 14.0833L21.6668 12.5396L13.4605 4.33333L11.9168 5.87708L20.123 14.0833ZM12.5397 21.6667L14.0834 20.0958L5.90426 11.9167L4.33343 13.4604L12.5397 21.6667ZM12.3772 15.3292L15.3563 12.3771L13.623 10.6437L10.6709 13.6229L12.3772 15.3292ZM14.0834 23.1833C13.6682 23.5986 13.1536 23.8062 12.5397 23.8062C11.9258 23.8062 11.4112 23.5986 10.9959 23.1833L2.81676 15.0042C2.40149 14.5889 2.19385 14.0743 2.19385 13.4604C2.19385 12.8465 2.40149 12.3319 2.81676 11.9167L4.36051 10.3729C4.77579 9.95763 5.28586 9.75 5.89072 9.75C6.49558 9.75 7.00565 9.95763 7.42093 10.3729L9.12718 12.0792L12.1063 9.1L10.4001 7.42083C9.98482 7.00555 9.77718 6.49097 9.77718 5.87708C9.77718 5.26319 9.98482 4.74861 10.4001 4.33333L11.9438 2.78958C12.3591 2.3743 12.8692 2.16666 13.4741 2.16666C14.0789 2.16666 14.589 2.3743 15.0043 2.78958L23.2105 10.9958C23.6258 11.4111 23.8334 11.9212 23.8334 12.526C23.8334 13.1309 23.6258 13.641 23.2105 14.0562L21.6668 15.6C21.2515 16.0153 20.7369 16.2229 20.123 16.2229C19.5091 16.2229 18.9945 16.0153 18.5793 15.6L16.9001 13.8937L13.9209 16.8729L15.6272 18.5792C16.0425 18.9944 16.2501 19.5045 16.2501 20.1094C16.2501 20.7142 16.0425 21.2243 15.6272 21.6396L14.0834 23.1833Z" fill="#5F6368"/>
</svg>
