<svg width="39" height="25" viewBox="0 0 39 25" fill="none" xmlns="http://www.w3.org/2000/svg">
<path d="M11.5455 23V21.25C11.5455 18.9294 12.3835 16.7038 13.8753 15.0628C15.3671 13.4219 17.3903 12.5 19.5 12.5M19.5 12.5C21.6097 12.5 23.6329 13.4219 25.1247 15.0628C26.6165 16.7038 27.4545 18.9294 27.4545 21.25V23M19.5 12.5C20.7658 12.5 21.9798 11.9469 22.8748 10.9623C23.7699 9.97775 24.2727 8.64239 24.2727 7.25C24.2727 5.85761 23.7699 4.52226 22.8748 3.53769C21.9798 2.55312 20.7658 2 19.5 2C18.2342 2 17.0202 2.55312 16.1252 3.53769C15.2301 4.52226 14.7273 5.85761 14.7273 7.25C14.7273 8.64239 15.2301 9.97775 16.1252 10.9623C17.0202 11.9469 18.2342 12.5 19.5 12.5ZM2 23V21.25C2 19.8576 2.50284 18.5223 3.3979 17.5377C4.29296 16.5531 5.50692 16 6.77273 16M6.77273 16C7.6166 16 8.42591 15.6313 9.02261 14.9749C9.61932 14.3185 9.95455 13.4283 9.95455 12.5C9.95455 11.5717 9.61932 10.6815 9.02261 10.0251C8.42591 9.36875 7.6166 9 6.77273 9C5.92886 9 5.11955 9.36875 4.52284 10.0251C3.92614 10.6815 3.59091 11.5717 3.59091 12.5C3.59091 13.4283 3.92614 14.3185 4.52284 14.9749C5.11955 15.6313 5.92886 16 6.77273 16ZM37 23V21.25C37 19.8576 36.4972 18.5223 35.6021 17.5377C34.707 16.5531 33.4931 16 32.2273 16M32.2273 16C33.0711 16 33.8805 15.6313 34.4772 14.9749C35.0739 14.3185 35.4091 13.4283 35.4091 12.5C35.4091 11.5717 35.0739 10.6815 34.4772 10.0251C33.8805 9.36875 33.0711 9 32.2273 9C31.3834 9 30.5741 9.36875 29.9774 10.0251C29.3807 10.6815 29.0455 11.5717 29.0455 12.5C29.0455 13.4283 29.3807 14.3185 29.9774 14.9749C30.5741 15.6313 31.3834 16 32.2273 16Z" stroke="black" stroke-opacity="0.5" stroke-width="3" stroke-linecap="round" stroke-linejoin="round"/>
</svg>
