<svg width="130" height="90" viewBox="0 0 130 90" fill="none" xmlns="http://www.w3.org/2000/svg">
<path d="M75.8333 35C75.8333 37.7614 78.0719 40 80.8333 40H108.75C111.511 40 113.75 37.7614 113.75 35V20C113.75 17.2386 111.511 15 108.75 15H80.8333C78.0719 15 75.8333 17.2386 75.8333 20V35ZM97.5052 31.9966C95.8536 33.0638 93.7297 33.0638 92.0781 31.9966L82.2102 25.6204C81.6116 25.2336 81.25 24.5695 81.25 23.8568C81.25 22.1933 83.0922 21.1903 84.4894 22.0931L92.0781 26.9966C93.7297 28.0638 95.8536 28.0638 97.5052 26.9966L105.094 22.0931C106.491 21.1903 108.333 22.1933 108.333 23.8568C108.333 24.5695 107.972 25.2336 107.373 25.6204L97.5052 31.9966ZM10.8333 90C7.85417 90 5.30382 89.0208 3.18229 87.0625C1.06076 85.1042 0 82.75 0 80V10C0 7.25 1.06076 4.89583 3.18229 2.9375C5.30382 0.979167 7.85417 0 10.8333 0H119.167C122.146 0 124.696 0.979167 126.818 2.9375C128.939 4.89583 130 7.25 130 10V80C130 82.75 128.939 85.1042 126.818 87.0625C124.696 89.0208 122.146 90 119.167 90H10.8333ZM84.5832 77.6455C85.591 79.0732 87.1922 80 88.9398 80H114.167C116.928 80 119.167 77.7614 119.167 75V15C119.167 12.2386 116.928 10 114.167 10H15.8333C13.0719 10 10.8333 12.2386 10.8333 15V79.6534C10.8333 79.8448 10.9885 80 11.1799 80C11.301 80 11.4134 79.9365 11.4767 79.8332C15.2601 73.6628 20.4623 68.8226 27.0833 65.3125C33.7639 61.7708 40.9861 60 48.75 60C56.5139 60 63.7361 61.7708 70.4167 65.3125C76.2342 68.3966 80.9563 72.5076 84.5832 77.6455ZM48.75 55C53.2639 55 57.1007 53.5417 60.2604 50.625C63.4201 47.7083 65 44.1667 65 40C65 35.8333 63.4201 32.2917 60.2604 29.375C57.1007 26.4583 53.2639 25 48.75 25C44.2361 25 40.3993 26.4583 37.2396 29.375C34.0799 32.2917 32.5 35.8333 32.5 40C32.5 44.1667 34.0799 47.7083 37.2396 50.625C40.3993 53.5417 44.2361 55 48.75 55ZM34.4718 73.1303C30.4324 75.0018 32.2463 80 36.6982 80H61.0443C65.4614 80 67.2777 75.0739 63.2742 73.2078C62.8402 73.0055 62.3999 72.8112 61.9531 72.625C57.7552 70.875 53.3542 70 48.75 70C44.1458 70 39.7674 70.875 35.6146 72.625C35.2294 72.7873 34.8485 72.9557 34.4718 73.1303ZM48.75 45C47.2153 45 45.9288 44.5208 44.8906 43.5625C43.8524 42.6042 43.3333 41.4167 43.3333 40C43.3333 38.5833 43.8524 37.3958 44.8906 36.4375C45.9288 35.4792 47.2153 35 48.75 35C50.2847 35 51.5712 35.4792 52.6094 36.4375C53.6476 37.3958 54.1667 38.5833 54.1667 40C54.1667 41.4167 53.6476 42.6042 52.6094 43.5625C51.5712 44.5208 50.2847 45 48.75 45Z" fill="#5F6368"/>
</svg>
